<svg width="223" height="443" viewBox="0 0 223 443" fill="none" xmlns="http://www.w3.org/2000/svg">
<path d="M27.9609 437.004C26.9401 437.004 26.0573 436.767 25.3125 436.293C24.5729 435.814 24 435.137 23.5938 434.262C23.1927 433.387 22.9922 432.348 22.9922 431.145V431.129C22.9922 429.926 23.1927 428.887 23.5938 428.012C24 427.132 24.5729 426.454 25.3125 425.98C26.0573 425.501 26.9375 425.262 27.9531 425.262C28.7292 425.262 29.4375 425.421 30.0781 425.738C30.724 426.056 31.2552 426.491 31.6719 427.043C32.0885 427.595 32.349 428.225 32.4531 428.934L32.4453 428.941L31.375 428.949V428.934C31.2604 428.402 31.0417 427.936 30.7188 427.535C30.3958 427.134 29.9948 426.819 29.5156 426.59C29.0417 426.361 28.5208 426.246 27.9531 426.246C27.1667 426.246 26.4818 426.447 25.8984 426.848C25.3203 427.249 24.8724 427.814 24.5547 428.543C24.2422 429.272 24.0859 430.134 24.0859 431.129V431.145C24.0859 432.134 24.2422 432.993 24.5547 433.723C24.8724 434.452 25.3203 435.017 25.8984 435.418C26.4818 435.819 27.1693 436.02 27.9609 436.02C28.5443 436.02 29.0729 435.918 29.5469 435.715C30.026 435.512 30.4245 435.228 30.7422 434.863C31.0599 434.493 31.2682 434.061 31.3672 433.566L31.3828 433.551H32.4531V433.566C32.3438 434.254 32.0833 434.855 31.6719 435.371C31.2656 435.887 30.7448 436.288 30.1094 436.574C29.474 436.861 28.7578 437.004 27.9609 437.004ZM34.6953 436.77V428.355H35.7266V429.738H35.8203C35.987 429.259 36.2682 428.887 36.6641 428.621C37.0599 428.35 37.5417 428.215 38.1094 428.215C38.2656 428.215 38.4115 428.223 38.5469 428.238C38.6823 428.254 38.7995 428.272 38.8984 428.293V429.301C38.7526 429.264 38.6068 429.238 38.4609 429.223C38.3203 429.202 38.1667 429.191 38 429.191C37.5625 429.191 37.1719 429.293 36.8281 429.496C36.4896 429.694 36.2214 429.967 36.0234 430.316C35.8255 430.665 35.7266 431.066 35.7266 431.52V436.77H34.6953ZM43.7891 436.91C43.0026 436.91 42.3229 436.733 41.75 436.379C41.1823 436.025 40.7448 435.525 40.4375 434.879C40.1302 434.233 39.9766 433.47 39.9766 432.59V432.574C39.9766 431.699 40.1302 430.936 40.4375 430.285C40.7448 429.629 41.1771 429.121 41.7344 428.762C42.2969 428.397 42.9531 428.215 43.7031 428.215C44.4583 428.215 45.1068 428.392 45.6484 428.746C46.1953 429.095 46.6146 429.585 46.9062 430.215C47.2031 430.84 47.3516 431.566 47.3516 432.395V432.832H40.5078V431.988H46.8281L46.3203 432.746V432.355C46.3203 431.652 46.2083 431.064 45.9844 430.59C45.7656 430.111 45.4583 429.749 45.0625 429.504C44.6719 429.259 44.2188 429.137 43.7031 429.137C43.1823 429.137 42.7214 429.262 42.3203 429.512C41.9193 429.762 41.6016 430.129 41.3672 430.613C41.138 431.092 41.0234 431.673 41.0234 432.355V432.746C41.0234 433.418 41.138 433.996 41.3672 434.48C41.5964 434.965 41.9193 435.337 42.3359 435.598C42.7526 435.858 43.2448 435.988 43.8125 435.988C44.2188 435.988 44.5807 435.931 44.8984 435.816C45.2214 435.702 45.4896 435.551 45.7031 435.363C45.9167 435.171 46.0703 434.967 46.1641 434.754L46.1875 434.691H47.2266L47.2031 434.754C47.1198 435.04 46.9818 435.314 46.7891 435.574C46.6016 435.829 46.362 436.059 46.0703 436.262C45.7786 436.46 45.4401 436.618 45.0547 436.738C44.6745 436.853 44.2526 436.91 43.7891 436.91ZM51.8906 436.91C51.349 436.91 50.8672 436.811 50.4453 436.613C50.0234 436.41 49.6901 436.124 49.4453 435.754C49.2005 435.384 49.0781 434.949 49.0781 434.449V434.434C49.0781 433.949 49.1953 433.533 49.4297 433.184C49.6641 432.829 50.0078 432.553 50.4609 432.355C50.9141 432.152 51.4635 432.03 52.1094 431.988L55.25 431.785V432.621L52.25 432.824C51.5312 432.871 50.9974 433.03 50.6484 433.301C50.3047 433.566 50.1328 433.939 50.1328 434.418V434.434C50.1328 434.918 50.3151 435.303 50.6797 435.59C51.0443 435.871 51.513 436.012 52.0859 436.012C52.5911 436.012 53.0417 435.908 53.4375 435.699C53.8385 435.486 54.1562 435.199 54.3906 434.84C54.625 434.48 54.7422 434.079 54.7422 433.637V431.027C54.7422 430.408 54.5599 429.936 54.1953 429.613C53.8307 429.29 53.3073 429.129 52.625 429.129C52.0521 429.129 51.5755 429.241 51.1953 429.465C50.8151 429.689 50.5677 430.012 50.4531 430.434L50.4453 430.449H49.4141L49.4219 430.418C49.4948 429.965 49.6771 429.574 49.9688 429.246C50.2604 428.918 50.6354 428.665 51.0938 428.488C51.5521 428.306 52.0729 428.215 52.6562 428.215C53.3177 428.215 53.8802 428.327 54.3438 428.551C54.8073 428.77 55.1589 429.087 55.3984 429.504C55.6432 429.921 55.7656 430.426 55.7656 431.02V436.77H54.7422V435.316H54.6406C54.474 435.65 54.2552 435.936 53.9844 436.176C53.7135 436.41 53.401 436.592 53.0469 436.723C52.6927 436.848 52.3073 436.91 51.8906 436.91ZM61.1406 436.824C60.3438 436.824 59.7656 436.658 59.4062 436.324C59.0521 435.991 58.875 435.441 58.875 434.676V429.215H57.5234V428.355H58.875V426.168H59.9375V428.355H61.8672V429.215H59.9375V434.441C59.9375 434.962 60.0391 435.337 60.2422 435.566C60.4453 435.796 60.7839 435.91 61.2578 435.91C61.3776 435.91 61.4818 435.908 61.5703 435.902C61.6589 435.897 61.7578 435.889 61.8672 435.879V436.762C61.7474 436.777 61.6276 436.79 61.5078 436.801C61.3932 436.816 61.2708 436.824 61.1406 436.824ZM64.0703 436.77V428.355H65.1016V436.77H64.0703ZM64.5859 426.605C64.3828 426.605 64.2057 426.533 64.0547 426.387C63.9036 426.236 63.8281 426.056 63.8281 425.848C63.8281 425.639 63.9036 425.462 64.0547 425.316C64.2057 425.165 64.3828 425.09 64.5859 425.09C64.7995 425.09 64.9792 425.165 65.125 425.316C65.2708 425.462 65.3438 425.639 65.3438 425.848C65.3438 426.056 65.2708 426.236 65.125 426.387C64.9792 426.533 64.7995 426.605 64.5859 426.605ZM67.7891 436.77V428.355H68.8203V429.832H68.9141C69.138 429.322 69.474 428.926 69.9219 428.645C70.375 428.358 70.9271 428.215 71.5781 428.215C72.5208 428.215 73.2474 428.486 73.7578 429.027C74.2734 429.564 74.5312 430.319 74.5312 431.293V436.77H73.5078V431.551C73.5078 430.754 73.3229 430.152 72.9531 429.746C72.5885 429.335 72.0417 429.129 71.3125 429.129C70.8177 429.129 70.3828 429.238 70.0078 429.457C69.6328 429.676 69.3411 429.983 69.1328 430.379C68.9245 430.775 68.8203 431.238 68.8203 431.77V436.77H67.7891ZM80.5156 439.707C79.875 439.707 79.3099 439.616 78.8203 439.434C78.3307 439.257 77.9375 439.004 77.6406 438.676C77.3438 438.353 77.1589 437.975 77.0859 437.543L77.1016 437.535H78.1641L78.1719 437.543C78.2656 437.908 78.5182 438.204 78.9297 438.434C79.3464 438.668 79.875 438.785 80.5156 438.785C81.3281 438.785 81.9688 438.59 82.4375 438.199C82.9115 437.809 83.1484 437.275 83.1484 436.598V434.707H83.0547C82.888 435.077 82.6641 435.395 82.3828 435.66C82.1068 435.926 81.7865 436.129 81.4219 436.27C81.0573 436.405 80.6589 436.473 80.2266 436.473C79.5078 436.473 78.8828 436.298 78.3516 435.949C77.8203 435.595 77.4089 435.111 77.1172 434.496C76.8255 433.876 76.6797 433.163 76.6797 432.355V432.34C76.6797 431.538 76.8255 430.827 77.1172 430.207C77.4089 429.587 77.8203 429.1 78.3516 428.746C78.888 428.392 79.5208 428.215 80.25 428.215C80.6823 428.215 81.0807 428.29 81.4453 428.441C81.8099 428.592 82.1302 428.806 82.4062 429.082C82.6823 429.358 82.901 429.686 83.0625 430.066H83.1406V428.355H84.1641V436.668C84.1641 437.277 84.013 437.809 83.7109 438.262C83.4141 438.72 82.9896 439.074 82.4375 439.324C81.8906 439.579 81.25 439.707 80.5156 439.707ZM80.4297 435.551C80.9922 435.551 81.4766 435.418 81.8828 435.152C82.2943 434.882 82.612 434.509 82.8359 434.035C83.0599 433.556 83.1719 433.004 83.1719 432.379V432.363C83.1719 431.728 83.0573 431.168 82.8281 430.684C82.6042 430.199 82.2865 429.819 81.875 429.543C81.4688 429.267 80.987 429.129 80.4297 429.129C79.8672 429.129 79.3854 429.267 78.9844 429.543C78.5833 429.814 78.2734 430.191 78.0547 430.676C77.8359 431.16 77.7266 431.715 77.7266 432.34V432.355C77.7266 432.986 77.8359 433.54 78.0547 434.02C78.2734 434.499 78.5833 434.874 78.9844 435.145C79.3854 435.415 79.8672 435.551 80.4297 435.551ZM91.6953 439.676C91.6276 439.676 91.5521 439.673 91.4688 439.668C91.3854 439.663 91.3073 439.655 91.2344 439.645V438.785C91.3021 438.796 91.3724 438.803 91.4453 438.809C91.5234 438.814 91.5964 438.816 91.6641 438.816C92.0547 438.816 92.375 438.715 92.625 438.512C92.8802 438.314 93.0938 437.962 93.2656 437.457L93.4766 436.824L90.3203 428.355H91.4219L94.2031 436.332L93.7734 435.66H94.2734L93.8438 436.332L96.6172 428.355H97.7031L94.2969 437.504C94.0938 438.056 93.8776 438.488 93.6484 438.801C93.4193 439.118 93.1484 439.342 92.8359 439.473C92.5286 439.608 92.1484 439.676 91.6953 439.676ZM102.672 436.91C101.891 436.91 101.214 436.736 100.641 436.387C100.068 436.033 99.625 435.53 99.3125 434.879C99.0052 434.228 98.8516 433.457 98.8516 432.566V432.551C98.8516 431.66 99.0052 430.889 99.3125 430.238C99.625 429.587 100.068 429.087 100.641 428.738C101.214 428.389 101.891 428.215 102.672 428.215C103.458 428.215 104.135 428.389 104.703 428.738C105.276 429.087 105.716 429.587 106.023 430.238C106.336 430.889 106.492 431.66 106.492 432.551V432.566C106.492 433.457 106.336 434.228 106.023 434.879C105.716 435.53 105.276 436.033 104.703 436.387C104.135 436.736 103.458 436.91 102.672 436.91ZM102.672 435.996C103.25 435.996 103.745 435.858 104.156 435.582C104.573 435.306 104.891 434.913 105.109 434.402C105.333 433.887 105.445 433.275 105.445 432.566V432.551C105.445 431.842 105.333 431.233 105.109 430.723C104.891 430.207 104.573 429.814 104.156 429.543C103.745 429.267 103.25 429.129 102.672 429.129C102.094 429.129 101.596 429.267 101.18 429.543C100.768 429.814 100.451 430.204 100.227 430.715C100.008 431.225 99.8984 431.837 99.8984 432.551V432.566C99.8984 433.275 100.008 433.887 100.227 434.402C100.451 434.913 100.768 435.306 101.18 435.582C101.596 435.858 102.094 435.996 102.672 435.996ZM111.594 436.91C110.969 436.91 110.435 436.788 109.992 436.543C109.549 436.298 109.214 435.944 108.984 435.48C108.755 435.017 108.641 434.465 108.641 433.824V428.355H109.672V433.566C109.672 434.353 109.852 434.954 110.211 435.371C110.576 435.788 111.12 435.996 111.844 435.996C112.234 435.996 112.583 435.934 112.891 435.809C113.203 435.684 113.469 435.507 113.688 435.277C113.906 435.043 114.07 434.764 114.18 434.441C114.294 434.118 114.352 433.757 114.352 433.355V428.355H115.383V436.77H114.352V435.301H114.258C114.122 435.634 113.93 435.923 113.68 436.168C113.43 436.408 113.128 436.592 112.773 436.723C112.424 436.848 112.031 436.91 111.594 436.91ZM118.023 436.77V428.355H119.055V429.738H119.148C119.315 429.259 119.596 428.887 119.992 428.621C120.388 428.35 120.87 428.215 121.438 428.215C121.594 428.215 121.74 428.223 121.875 428.238C122.01 428.254 122.128 428.272 122.227 428.293V429.301C122.081 429.264 121.935 429.238 121.789 429.223C121.648 429.202 121.495 429.191 121.328 429.191C120.891 429.191 120.5 429.293 120.156 429.496C119.818 429.694 119.549 429.967 119.352 430.316C119.154 430.665 119.055 431.066 119.055 431.52V436.77H118.023ZM130.625 436.91C130.083 436.91 129.602 436.811 129.18 436.613C128.758 436.41 128.424 436.124 128.18 435.754C127.935 435.384 127.812 434.949 127.812 434.449V434.434C127.812 433.949 127.93 433.533 128.164 433.184C128.398 432.829 128.742 432.553 129.195 432.355C129.648 432.152 130.198 432.03 130.844 431.988L133.984 431.785V432.621L130.984 432.824C130.266 432.871 129.732 433.03 129.383 433.301C129.039 433.566 128.867 433.939 128.867 434.418V434.434C128.867 434.918 129.049 435.303 129.414 435.59C129.779 435.871 130.247 436.012 130.82 436.012C131.326 436.012 131.776 435.908 132.172 435.699C132.573 435.486 132.891 435.199 133.125 434.84C133.359 434.48 133.477 434.079 133.477 433.637V431.027C133.477 430.408 133.294 429.936 132.93 429.613C132.565 429.29 132.042 429.129 131.359 429.129C130.786 429.129 130.31 429.241 129.93 429.465C129.549 429.689 129.302 430.012 129.188 430.434L129.18 430.449H128.148L128.156 430.418C128.229 429.965 128.411 429.574 128.703 429.246C128.995 428.918 129.37 428.665 129.828 428.488C130.286 428.306 130.807 428.215 131.391 428.215C132.052 428.215 132.615 428.327 133.078 428.551C133.542 428.77 133.893 429.087 134.133 429.504C134.378 429.921 134.5 430.426 134.5 431.02V436.77H133.477V435.316H133.375C133.208 435.65 132.99 435.936 132.719 436.176C132.448 436.41 132.135 436.592 131.781 436.723C131.427 436.848 131.042 436.91 130.625 436.91ZM140.477 436.91C139.701 436.91 139.029 436.733 138.461 436.379C137.893 436.02 137.453 435.512 137.141 434.855C136.833 434.199 136.68 433.428 136.68 432.543V432.527C136.68 431.647 136.833 430.887 137.141 430.246C137.448 429.6 137.885 429.1 138.453 428.746C139.026 428.392 139.698 428.215 140.469 428.215C141.109 428.215 141.672 428.329 142.156 428.559C142.641 428.783 143.031 429.09 143.328 429.48C143.63 429.871 143.826 430.311 143.914 430.801V430.832H142.891V430.816C142.766 430.332 142.492 429.931 142.07 429.613C141.648 429.29 141.115 429.129 140.469 429.129C139.911 429.129 139.427 429.27 139.016 429.551C138.604 429.827 138.286 430.22 138.062 430.73C137.839 431.236 137.727 431.835 137.727 432.527V432.543C137.727 433.241 137.839 433.85 138.062 434.371C138.292 434.887 138.612 435.288 139.023 435.574C139.435 435.855 139.917 435.996 140.469 435.996C141.094 435.996 141.612 435.855 142.023 435.574C142.44 435.293 142.724 434.897 142.875 434.387L142.891 434.348L143.906 434.34L143.898 434.41C143.789 434.9 143.586 435.335 143.289 435.715C142.997 436.09 142.615 436.384 142.141 436.598C141.672 436.806 141.117 436.91 140.477 436.91ZM149.43 436.91C148.654 436.91 147.982 436.733 147.414 436.379C146.846 436.02 146.406 435.512 146.094 434.855C145.786 434.199 145.633 433.428 145.633 432.543V432.527C145.633 431.647 145.786 430.887 146.094 430.246C146.401 429.6 146.839 429.1 147.406 428.746C147.979 428.392 148.651 428.215 149.422 428.215C150.062 428.215 150.625 428.329 151.109 428.559C151.594 428.783 151.984 429.09 152.281 429.48C152.583 429.871 152.779 430.311 152.867 430.801V430.832H151.844V430.816C151.719 430.332 151.445 429.931 151.023 429.613C150.602 429.29 150.068 429.129 149.422 429.129C148.865 429.129 148.38 429.27 147.969 429.551C147.557 429.827 147.24 430.22 147.016 430.73C146.792 431.236 146.68 431.835 146.68 432.527V432.543C146.68 433.241 146.792 433.85 147.016 434.371C147.245 434.887 147.565 435.288 147.977 435.574C148.388 435.855 148.87 435.996 149.422 435.996C150.047 435.996 150.565 435.855 150.977 435.574C151.393 435.293 151.677 434.897 151.828 434.387L151.844 434.348L152.859 434.34L152.852 434.41C152.742 434.9 152.539 435.335 152.242 435.715C151.951 436.09 151.568 436.384 151.094 436.598C150.625 436.806 150.07 436.91 149.43 436.91ZM158.406 436.91C157.625 436.91 156.948 436.736 156.375 436.387C155.802 436.033 155.359 435.53 155.047 434.879C154.74 434.228 154.586 433.457 154.586 432.566V432.551C154.586 431.66 154.74 430.889 155.047 430.238C155.359 429.587 155.802 429.087 156.375 428.738C156.948 428.389 157.625 428.215 158.406 428.215C159.193 428.215 159.87 428.389 160.438 428.738C161.01 429.087 161.451 429.587 161.758 430.238C162.07 430.889 162.227 431.66 162.227 432.551V432.566C162.227 433.457 162.07 434.228 161.758 434.879C161.451 435.53 161.01 436.033 160.438 436.387C159.87 436.736 159.193 436.91 158.406 436.91ZM158.406 435.996C158.984 435.996 159.479 435.858 159.891 435.582C160.307 435.306 160.625 434.913 160.844 434.402C161.068 433.887 161.18 433.275 161.18 432.566V432.551C161.18 431.842 161.068 431.233 160.844 430.723C160.625 430.207 160.307 429.814 159.891 429.543C159.479 429.267 158.984 429.129 158.406 429.129C157.828 429.129 157.331 429.267 156.914 429.543C156.503 429.814 156.185 430.204 155.961 430.715C155.742 431.225 155.633 431.837 155.633 432.551V432.566C155.633 433.275 155.742 433.887 155.961 434.402C156.185 434.913 156.503 435.306 156.914 435.582C157.331 435.858 157.828 435.996 158.406 435.996ZM167.328 436.91C166.703 436.91 166.169 436.788 165.727 436.543C165.284 436.298 164.948 435.944 164.719 435.48C164.49 435.017 164.375 434.465 164.375 433.824V428.355H165.406V433.566C165.406 434.353 165.586 434.954 165.945 435.371C166.31 435.788 166.854 435.996 167.578 435.996C167.969 435.996 168.318 435.934 168.625 435.809C168.938 435.684 169.203 435.507 169.422 435.277C169.641 435.043 169.805 434.764 169.914 434.441C170.029 434.118 170.086 433.757 170.086 433.355V428.355H171.117V436.77H170.086V435.301H169.992C169.857 435.634 169.664 435.923 169.414 436.168C169.164 436.408 168.862 436.592 168.508 436.723C168.159 436.848 167.766 436.91 167.328 436.91ZM173.758 436.77V428.355H174.789V429.832H174.883C175.107 429.322 175.443 428.926 175.891 428.645C176.344 428.358 176.896 428.215 177.547 428.215C178.49 428.215 179.216 428.486 179.727 429.027C180.242 429.564 180.5 430.319 180.5 431.293V436.77H179.477V431.551C179.477 430.754 179.292 430.152 178.922 429.746C178.557 429.335 178.01 429.129 177.281 429.129C176.786 429.129 176.352 429.238 175.977 429.457C175.602 429.676 175.31 429.983 175.102 430.379C174.893 430.775 174.789 431.238 174.789 431.77V436.77H173.758ZM185.844 436.824C185.047 436.824 184.469 436.658 184.109 436.324C183.755 435.991 183.578 435.441 183.578 434.676V429.215H182.227V428.355H183.578V426.168H184.641V428.355H186.57V429.215H184.641V434.441C184.641 434.962 184.742 435.337 184.945 435.566C185.148 435.796 185.487 435.91 185.961 435.91C186.081 435.91 186.185 435.908 186.273 435.902C186.362 435.897 186.461 435.889 186.57 435.879V436.762C186.451 436.777 186.331 436.79 186.211 436.801C186.096 436.816 185.974 436.824 185.844 436.824ZM189.719 436.832C189.495 436.832 189.302 436.751 189.141 436.59C188.979 436.428 188.898 436.236 188.898 436.012C188.898 435.783 188.979 435.59 189.141 435.434C189.302 435.272 189.495 435.191 189.719 435.191C189.953 435.191 190.148 435.272 190.305 435.434C190.466 435.59 190.547 435.783 190.547 436.012C190.547 436.236 190.466 436.428 190.305 436.59C190.148 436.751 189.953 436.832 189.719 436.832ZM194.359 436.832C194.135 436.832 193.943 436.751 193.781 436.59C193.62 436.428 193.539 436.236 193.539 436.012C193.539 435.783 193.62 435.59 193.781 435.434C193.943 435.272 194.135 435.191 194.359 435.191C194.594 435.191 194.789 435.272 194.945 435.434C195.107 435.59 195.188 435.783 195.188 436.012C195.188 436.236 195.107 436.428 194.945 436.59C194.789 436.751 194.594 436.832 194.359 436.832ZM199 436.832C198.776 436.832 198.583 436.751 198.422 436.59C198.26 436.428 198.18 436.236 198.18 436.012C198.18 435.783 198.26 435.59 198.422 435.434C198.583 435.272 198.776 435.191 199 435.191C199.234 435.191 199.43 435.272 199.586 435.434C199.747 435.59 199.828 435.783 199.828 436.012C199.828 436.236 199.747 436.428 199.586 436.59C199.43 436.751 199.234 436.832 199 436.832Z" fill="white"/>
<g opacity="0.9">
<path d="M112.499 124.736C107.925 124.736 104.01 123.107 100.753 119.85C97.4961 116.593 95.8676 112.678 95.8676 108.104C95.8676 103.531 97.4961 99.6152 100.753 96.3583C104.01 93.1013 107.925 91.4728 112.499 91.4728C117.073 91.4728 120.988 93.1013 124.245 96.3583C127.502 99.6152 129.13 103.531 129.13 108.104C129.13 112.678 127.502 116.593 124.245 119.85C120.988 123.107 117.073 124.736 112.499 124.736Z" fill="#BD2724"/>
<path d="M112.784 163.368V114.329" stroke="#BD2724" stroke-width="10"/>
</g>
<path d="M112.435 382.154V165.66" stroke="#070808" stroke-width="8"/>
<path d="M13.2002 243.832C88.8651 262.48 132.565 262.043 212.538 243.832" stroke="#070808" stroke-width="8"/>
<path d="M211.005 311.408C135.34 292.76 91.6397 293.198 11.6669 311.408" stroke="#070808" stroke-width="8"/>
<path d="M48.2463 189.028C97.0941 206.913 125.306 206.493 176.935 189.028" stroke="#070808" stroke-width="8"/>
<path d="M48.2463 360.218C97.0941 342.333 125.306 342.753 176.935 360.218" stroke="#070808" stroke-width="8"/>
<path d="M112.435 167C124.82 167 137.203 177.577 146.727 197.391C156.113 216.918 162.029 244.175 162.029 274.5C162.029 304.825 156.113 332.082 146.727 351.609C137.203 371.423 124.82 382 112.435 382C100.05 382 87.6671 371.423 78.1436 351.609C68.7575 332.082 62.8408 304.825 62.8408 274.5C62.8408 244.175 68.7575 216.918 78.1436 197.391C87.6671 177.577 100.05 167 112.435 167Z" stroke="#070808" stroke-width="8"/>
<g filter="url(#filter0_d_302_298)">
<path d="M111.5 167C168.525 167 215 214.99 215 274.5C215 334.01 168.525 382 111.5 382C54.475 382 8 334.01 8 274.5C8 214.99 54.475 167 111.5 167Z" stroke="#070808" stroke-width="8" shape-rendering="crispEdges"/>
</g>
<defs>
<filter id="filter0_d_302_298" x="0" y="163" width="223" height="231" filterUnits="userSpaceOnUse" color-interpolation-filters="sRGB">
<feFlood flood-opacity="0" result="BackgroundImageFix"/>
<feColorMatrix in="SourceAlpha" type="matrix" values="0 0 0 0 0 0 0 0 0 0 0 0 0 0 0 0 0 0 127 0" result="hardAlpha"/>
<feOffset dy="4"/>
<feGaussianBlur stdDeviation="2"/>
<feComposite in2="hardAlpha" operator="out"/>
<feColorMatrix type="matrix" values="0 0 0 0 0 0 0 0 0 0 0 0 0 0 0 0 0 0 0.25 0"/>
<feBlend mode="normal" in2="BackgroundImageFix" result="effect1_dropShadow_302_298"/>
<feBlend mode="normal" in="SourceGraphic" in2="effect1_dropShadow_302_298" result="shape"/>
</filter>
</defs>
</svg>
