<svg width="237" height="280" viewBox="0 0 237 280" fill="none" xmlns="http://www.w3.org/2000/svg">
<path d="M34.9609 274.004C33.9401 274.004 33.0573 273.767 32.3125 273.293C31.5729 272.814 31 272.137 30.5938 271.262C30.1927 270.387 29.9922 269.348 29.9922 268.145V268.129C29.9922 266.926 30.1927 265.887 30.5938 265.012C31 264.132 31.5729 263.454 32.3125 262.98C33.0573 262.501 33.9375 262.262 34.9531 262.262C35.7292 262.262 36.4375 262.421 37.0781 262.738C37.724 263.056 38.2552 263.491 38.6719 264.043C39.0885 264.595 39.349 265.225 39.4531 265.934L39.4453 265.941L38.375 265.949V265.934C38.2604 265.402 38.0417 264.936 37.7188 264.535C37.3958 264.134 36.9948 263.819 36.5156 263.59C36.0417 263.361 35.5208 263.246 34.9531 263.246C34.1667 263.246 33.4818 263.447 32.8984 263.848C32.3203 264.249 31.8724 264.814 31.5547 265.543C31.2422 266.272 31.0859 267.134 31.0859 268.129V268.145C31.0859 269.134 31.2422 269.993 31.5547 270.723C31.8724 271.452 32.3203 272.017 32.8984 272.418C33.4818 272.819 34.1693 273.02 34.9609 273.02C35.5443 273.02 36.0729 272.918 36.5469 272.715C37.026 272.512 37.4245 272.228 37.7422 271.863C38.0599 271.493 38.2682 271.061 38.3672 270.566L38.3828 270.551H39.4531V270.566C39.3438 271.254 39.0833 271.855 38.6719 272.371C38.2656 272.887 37.7448 273.288 37.1094 273.574C36.474 273.861 35.7578 274.004 34.9609 274.004ZM41.6953 273.77V265.355H42.7266V266.738H42.8203C42.987 266.259 43.2682 265.887 43.6641 265.621C44.0599 265.35 44.5417 265.215 45.1094 265.215C45.2656 265.215 45.4115 265.223 45.5469 265.238C45.6823 265.254 45.7995 265.272 45.8984 265.293V266.301C45.7526 266.264 45.6068 266.238 45.4609 266.223C45.3203 266.202 45.1667 266.191 45 266.191C44.5625 266.191 44.1719 266.293 43.8281 266.496C43.4896 266.694 43.2214 266.967 43.0234 267.316C42.8255 267.665 42.7266 268.066 42.7266 268.52V273.77H41.6953ZM50.7891 273.91C50.0026 273.91 49.3229 273.733 48.75 273.379C48.1823 273.025 47.7448 272.525 47.4375 271.879C47.1302 271.233 46.9766 270.47 46.9766 269.59V269.574C46.9766 268.699 47.1302 267.936 47.4375 267.285C47.7448 266.629 48.1771 266.121 48.7344 265.762C49.2969 265.397 49.9531 265.215 50.7031 265.215C51.4583 265.215 52.1068 265.392 52.6484 265.746C53.1953 266.095 53.6146 266.585 53.9062 267.215C54.2031 267.84 54.3516 268.566 54.3516 269.395V269.832H47.5078V268.988H53.8281L53.3203 269.746V269.355C53.3203 268.652 53.2083 268.064 52.9844 267.59C52.7656 267.111 52.4583 266.749 52.0625 266.504C51.6719 266.259 51.2188 266.137 50.7031 266.137C50.1823 266.137 49.7214 266.262 49.3203 266.512C48.9193 266.762 48.6016 267.129 48.3672 267.613C48.138 268.092 48.0234 268.673 48.0234 269.355V269.746C48.0234 270.418 48.138 270.996 48.3672 271.48C48.5964 271.965 48.9193 272.337 49.3359 272.598C49.7526 272.858 50.2448 272.988 50.8125 272.988C51.2188 272.988 51.5807 272.931 51.8984 272.816C52.2214 272.702 52.4896 272.551 52.7031 272.363C52.9167 272.171 53.0703 271.967 53.1641 271.754L53.1875 271.691H54.2266L54.2031 271.754C54.1198 272.04 53.9818 272.314 53.7891 272.574C53.6016 272.829 53.362 273.059 53.0703 273.262C52.7786 273.46 52.4401 273.618 52.0547 273.738C51.6745 273.853 51.2526 273.91 50.7891 273.91ZM58.8906 273.91C58.349 273.91 57.8672 273.811 57.4453 273.613C57.0234 273.41 56.6901 273.124 56.4453 272.754C56.2005 272.384 56.0781 271.949 56.0781 271.449V271.434C56.0781 270.949 56.1953 270.533 56.4297 270.184C56.6641 269.829 57.0078 269.553 57.4609 269.355C57.9141 269.152 58.4635 269.03 59.1094 268.988L62.25 268.785V269.621L59.25 269.824C58.5312 269.871 57.9974 270.03 57.6484 270.301C57.3047 270.566 57.1328 270.939 57.1328 271.418V271.434C57.1328 271.918 57.3151 272.303 57.6797 272.59C58.0443 272.871 58.513 273.012 59.0859 273.012C59.5911 273.012 60.0417 272.908 60.4375 272.699C60.8385 272.486 61.1562 272.199 61.3906 271.84C61.625 271.48 61.7422 271.079 61.7422 270.637V268.027C61.7422 267.408 61.5599 266.936 61.1953 266.613C60.8307 266.29 60.3073 266.129 59.625 266.129C59.0521 266.129 58.5755 266.241 58.1953 266.465C57.8151 266.689 57.5677 267.012 57.4531 267.434L57.4453 267.449H56.4141L56.4219 267.418C56.4948 266.965 56.6771 266.574 56.9688 266.246C57.2604 265.918 57.6354 265.665 58.0938 265.488C58.5521 265.306 59.0729 265.215 59.6562 265.215C60.3177 265.215 60.8802 265.327 61.3438 265.551C61.8073 265.77 62.1589 266.087 62.3984 266.504C62.6432 266.921 62.7656 267.426 62.7656 268.02V273.77H61.7422V272.316H61.6406C61.474 272.65 61.2552 272.936 60.9844 273.176C60.7135 273.41 60.401 273.592 60.0469 273.723C59.6927 273.848 59.3073 273.91 58.8906 273.91ZM68.1406 273.824C67.3438 273.824 66.7656 273.658 66.4062 273.324C66.0521 272.991 65.875 272.441 65.875 271.676V266.215H64.5234V265.355H65.875V263.168H66.9375V265.355H68.8672V266.215H66.9375V271.441C66.9375 271.962 67.0391 272.337 67.2422 272.566C67.4453 272.796 67.7839 272.91 68.2578 272.91C68.3776 272.91 68.4818 272.908 68.5703 272.902C68.6589 272.897 68.7578 272.889 68.8672 272.879V273.762C68.7474 273.777 68.6276 273.79 68.5078 273.801C68.3932 273.816 68.2708 273.824 68.1406 273.824ZM71.0703 273.77V265.355H72.1016V273.77H71.0703ZM71.5859 263.605C71.3828 263.605 71.2057 263.533 71.0547 263.387C70.9036 263.236 70.8281 263.056 70.8281 262.848C70.8281 262.639 70.9036 262.462 71.0547 262.316C71.2057 262.165 71.3828 262.09 71.5859 262.09C71.7995 262.09 71.9792 262.165 72.125 262.316C72.2708 262.462 72.3438 262.639 72.3438 262.848C72.3438 263.056 72.2708 263.236 72.125 263.387C71.9792 263.533 71.7995 263.605 71.5859 263.605ZM74.7891 273.77V265.355H75.8203V266.832H75.9141C76.138 266.322 76.474 265.926 76.9219 265.645C77.375 265.358 77.9271 265.215 78.5781 265.215C79.5208 265.215 80.2474 265.486 80.7578 266.027C81.2734 266.564 81.5312 267.319 81.5312 268.293V273.77H80.5078V268.551C80.5078 267.754 80.3229 267.152 79.9531 266.746C79.5885 266.335 79.0417 266.129 78.3125 266.129C77.8177 266.129 77.3828 266.238 77.0078 266.457C76.6328 266.676 76.3411 266.983 76.1328 267.379C75.9245 267.775 75.8203 268.238 75.8203 268.77V273.77H74.7891ZM87.5156 276.707C86.875 276.707 86.3099 276.616 85.8203 276.434C85.3307 276.257 84.9375 276.004 84.6406 275.676C84.3438 275.353 84.1589 274.975 84.0859 274.543L84.1016 274.535H85.1641L85.1719 274.543C85.2656 274.908 85.5182 275.204 85.9297 275.434C86.3464 275.668 86.875 275.785 87.5156 275.785C88.3281 275.785 88.9688 275.59 89.4375 275.199C89.9115 274.809 90.1484 274.275 90.1484 273.598V271.707H90.0547C89.888 272.077 89.6641 272.395 89.3828 272.66C89.1068 272.926 88.7865 273.129 88.4219 273.27C88.0573 273.405 87.6589 273.473 87.2266 273.473C86.5078 273.473 85.8828 273.298 85.3516 272.949C84.8203 272.595 84.4089 272.111 84.1172 271.496C83.8255 270.876 83.6797 270.163 83.6797 269.355V269.34C83.6797 268.538 83.8255 267.827 84.1172 267.207C84.4089 266.587 84.8203 266.1 85.3516 265.746C85.888 265.392 86.5208 265.215 87.25 265.215C87.6823 265.215 88.0807 265.29 88.4453 265.441C88.8099 265.592 89.1302 265.806 89.4062 266.082C89.6823 266.358 89.901 266.686 90.0625 267.066H90.1406V265.355H91.1641V273.668C91.1641 274.277 91.013 274.809 90.7109 275.262C90.4141 275.72 89.9896 276.074 89.4375 276.324C88.8906 276.579 88.25 276.707 87.5156 276.707ZM87.4297 272.551C87.9922 272.551 88.4766 272.418 88.8828 272.152C89.2943 271.882 89.612 271.509 89.8359 271.035C90.0599 270.556 90.1719 270.004 90.1719 269.379V269.363C90.1719 268.728 90.0573 268.168 89.8281 267.684C89.6042 267.199 89.2865 266.819 88.875 266.543C88.4688 266.267 87.987 266.129 87.4297 266.129C86.8672 266.129 86.3854 266.267 85.9844 266.543C85.5833 266.814 85.2734 267.191 85.0547 267.676C84.8359 268.16 84.7266 268.715 84.7266 269.34V269.355C84.7266 269.986 84.8359 270.54 85.0547 271.02C85.2734 271.499 85.5833 271.874 85.9844 272.145C86.3854 272.415 86.8672 272.551 87.4297 272.551ZM98.6953 276.676C98.6276 276.676 98.5521 276.673 98.4688 276.668C98.3854 276.663 98.3073 276.655 98.2344 276.645V275.785C98.3021 275.796 98.3724 275.803 98.4453 275.809C98.5234 275.814 98.5964 275.816 98.6641 275.816C99.0547 275.816 99.375 275.715 99.625 275.512C99.8802 275.314 100.094 274.962 100.266 274.457L100.477 273.824L97.3203 265.355H98.4219L101.203 273.332L100.773 272.66H101.273L100.844 273.332L103.617 265.355H104.703L101.297 274.504C101.094 275.056 100.878 275.488 100.648 275.801C100.419 276.118 100.148 276.342 99.8359 276.473C99.5286 276.608 99.1484 276.676 98.6953 276.676ZM109.672 273.91C108.891 273.91 108.214 273.736 107.641 273.387C107.068 273.033 106.625 272.53 106.312 271.879C106.005 271.228 105.852 270.457 105.852 269.566V269.551C105.852 268.66 106.005 267.889 106.312 267.238C106.625 266.587 107.068 266.087 107.641 265.738C108.214 265.389 108.891 265.215 109.672 265.215C110.458 265.215 111.135 265.389 111.703 265.738C112.276 266.087 112.716 266.587 113.023 267.238C113.336 267.889 113.492 268.66 113.492 269.551V269.566C113.492 270.457 113.336 271.228 113.023 271.879C112.716 272.53 112.276 273.033 111.703 273.387C111.135 273.736 110.458 273.91 109.672 273.91ZM109.672 272.996C110.25 272.996 110.745 272.858 111.156 272.582C111.573 272.306 111.891 271.913 112.109 271.402C112.333 270.887 112.445 270.275 112.445 269.566V269.551C112.445 268.842 112.333 268.233 112.109 267.723C111.891 267.207 111.573 266.814 111.156 266.543C110.745 266.267 110.25 266.129 109.672 266.129C109.094 266.129 108.596 266.267 108.18 266.543C107.768 266.814 107.451 267.204 107.227 267.715C107.008 268.225 106.898 268.837 106.898 269.551V269.566C106.898 270.275 107.008 270.887 107.227 271.402C107.451 271.913 107.768 272.306 108.18 272.582C108.596 272.858 109.094 272.996 109.672 272.996ZM118.594 273.91C117.969 273.91 117.435 273.788 116.992 273.543C116.549 273.298 116.214 272.944 115.984 272.48C115.755 272.017 115.641 271.465 115.641 270.824V265.355H116.672V270.566C116.672 271.353 116.852 271.954 117.211 272.371C117.576 272.788 118.12 272.996 118.844 272.996C119.234 272.996 119.583 272.934 119.891 272.809C120.203 272.684 120.469 272.507 120.688 272.277C120.906 272.043 121.07 271.764 121.18 271.441C121.294 271.118 121.352 270.757 121.352 270.355V265.355H122.383V273.77H121.352V272.301H121.258C121.122 272.634 120.93 272.923 120.68 273.168C120.43 273.408 120.128 273.592 119.773 273.723C119.424 273.848 119.031 273.91 118.594 273.91ZM125.023 273.77V265.355H126.055V266.738H126.148C126.315 266.259 126.596 265.887 126.992 265.621C127.388 265.35 127.87 265.215 128.438 265.215C128.594 265.215 128.74 265.223 128.875 265.238C129.01 265.254 129.128 265.272 129.227 265.293V266.301C129.081 266.264 128.935 266.238 128.789 266.223C128.648 266.202 128.495 266.191 128.328 266.191C127.891 266.191 127.5 266.293 127.156 266.496C126.818 266.694 126.549 266.967 126.352 267.316C126.154 267.665 126.055 268.066 126.055 268.52V273.77H125.023ZM137.625 273.91C137.083 273.91 136.602 273.811 136.18 273.613C135.758 273.41 135.424 273.124 135.18 272.754C134.935 272.384 134.812 271.949 134.812 271.449V271.434C134.812 270.949 134.93 270.533 135.164 270.184C135.398 269.829 135.742 269.553 136.195 269.355C136.648 269.152 137.198 269.03 137.844 268.988L140.984 268.785V269.621L137.984 269.824C137.266 269.871 136.732 270.03 136.383 270.301C136.039 270.566 135.867 270.939 135.867 271.418V271.434C135.867 271.918 136.049 272.303 136.414 272.59C136.779 272.871 137.247 273.012 137.82 273.012C138.326 273.012 138.776 272.908 139.172 272.699C139.573 272.486 139.891 272.199 140.125 271.84C140.359 271.48 140.477 271.079 140.477 270.637V268.027C140.477 267.408 140.294 266.936 139.93 266.613C139.565 266.29 139.042 266.129 138.359 266.129C137.786 266.129 137.31 266.241 136.93 266.465C136.549 266.689 136.302 267.012 136.188 267.434L136.18 267.449H135.148L135.156 267.418C135.229 266.965 135.411 266.574 135.703 266.246C135.995 265.918 136.37 265.665 136.828 265.488C137.286 265.306 137.807 265.215 138.391 265.215C139.052 265.215 139.615 265.327 140.078 265.551C140.542 265.77 140.893 266.087 141.133 266.504C141.378 266.921 141.5 267.426 141.5 268.02V273.77H140.477V272.316H140.375C140.208 272.65 139.99 272.936 139.719 273.176C139.448 273.41 139.135 273.592 138.781 273.723C138.427 273.848 138.042 273.91 137.625 273.91ZM147.477 273.91C146.701 273.91 146.029 273.733 145.461 273.379C144.893 273.02 144.453 272.512 144.141 271.855C143.833 271.199 143.68 270.428 143.68 269.543V269.527C143.68 268.647 143.833 267.887 144.141 267.246C144.448 266.6 144.885 266.1 145.453 265.746C146.026 265.392 146.698 265.215 147.469 265.215C148.109 265.215 148.672 265.329 149.156 265.559C149.641 265.783 150.031 266.09 150.328 266.48C150.63 266.871 150.826 267.311 150.914 267.801V267.832H149.891V267.816C149.766 267.332 149.492 266.931 149.07 266.613C148.648 266.29 148.115 266.129 147.469 266.129C146.911 266.129 146.427 266.27 146.016 266.551C145.604 266.827 145.286 267.22 145.062 267.73C144.839 268.236 144.727 268.835 144.727 269.527V269.543C144.727 270.241 144.839 270.85 145.062 271.371C145.292 271.887 145.612 272.288 146.023 272.574C146.435 272.855 146.917 272.996 147.469 272.996C148.094 272.996 148.612 272.855 149.023 272.574C149.44 272.293 149.724 271.897 149.875 271.387L149.891 271.348L150.906 271.34L150.898 271.41C150.789 271.9 150.586 272.335 150.289 272.715C149.997 273.09 149.615 273.384 149.141 273.598C148.672 273.806 148.117 273.91 147.477 273.91ZM156.43 273.91C155.654 273.91 154.982 273.733 154.414 273.379C153.846 273.02 153.406 272.512 153.094 271.855C152.786 271.199 152.633 270.428 152.633 269.543V269.527C152.633 268.647 152.786 267.887 153.094 267.246C153.401 266.6 153.839 266.1 154.406 265.746C154.979 265.392 155.651 265.215 156.422 265.215C157.062 265.215 157.625 265.329 158.109 265.559C158.594 265.783 158.984 266.09 159.281 266.48C159.583 266.871 159.779 267.311 159.867 267.801V267.832H158.844V267.816C158.719 267.332 158.445 266.931 158.023 266.613C157.602 266.29 157.068 266.129 156.422 266.129C155.865 266.129 155.38 266.27 154.969 266.551C154.557 266.827 154.24 267.22 154.016 267.73C153.792 268.236 153.68 268.835 153.68 269.527V269.543C153.68 270.241 153.792 270.85 154.016 271.371C154.245 271.887 154.565 272.288 154.977 272.574C155.388 272.855 155.87 272.996 156.422 272.996C157.047 272.996 157.565 272.855 157.977 272.574C158.393 272.293 158.677 271.897 158.828 271.387L158.844 271.348L159.859 271.34L159.852 271.41C159.742 271.9 159.539 272.335 159.242 272.715C158.951 273.09 158.568 273.384 158.094 273.598C157.625 273.806 157.07 273.91 156.43 273.91ZM165.406 273.91C164.625 273.91 163.948 273.736 163.375 273.387C162.802 273.033 162.359 272.53 162.047 271.879C161.74 271.228 161.586 270.457 161.586 269.566V269.551C161.586 268.66 161.74 267.889 162.047 267.238C162.359 266.587 162.802 266.087 163.375 265.738C163.948 265.389 164.625 265.215 165.406 265.215C166.193 265.215 166.87 265.389 167.438 265.738C168.01 266.087 168.451 266.587 168.758 267.238C169.07 267.889 169.227 268.66 169.227 269.551V269.566C169.227 270.457 169.07 271.228 168.758 271.879C168.451 272.53 168.01 273.033 167.438 273.387C166.87 273.736 166.193 273.91 165.406 273.91ZM165.406 272.996C165.984 272.996 166.479 272.858 166.891 272.582C167.307 272.306 167.625 271.913 167.844 271.402C168.068 270.887 168.18 270.275 168.18 269.566V269.551C168.18 268.842 168.068 268.233 167.844 267.723C167.625 267.207 167.307 266.814 166.891 266.543C166.479 266.267 165.984 266.129 165.406 266.129C164.828 266.129 164.331 266.267 163.914 266.543C163.503 266.814 163.185 267.204 162.961 267.715C162.742 268.225 162.633 268.837 162.633 269.551V269.566C162.633 270.275 162.742 270.887 162.961 271.402C163.185 271.913 163.503 272.306 163.914 272.582C164.331 272.858 164.828 272.996 165.406 272.996ZM174.328 273.91C173.703 273.91 173.169 273.788 172.727 273.543C172.284 273.298 171.948 272.944 171.719 272.48C171.49 272.017 171.375 271.465 171.375 270.824V265.355H172.406V270.566C172.406 271.353 172.586 271.954 172.945 272.371C173.31 272.788 173.854 272.996 174.578 272.996C174.969 272.996 175.318 272.934 175.625 272.809C175.938 272.684 176.203 272.507 176.422 272.277C176.641 272.043 176.805 271.764 176.914 271.441C177.029 271.118 177.086 270.757 177.086 270.355V265.355H178.117V273.77H177.086V272.301H176.992C176.857 272.634 176.664 272.923 176.414 273.168C176.164 273.408 175.862 273.592 175.508 273.723C175.159 273.848 174.766 273.91 174.328 273.91ZM180.758 273.77V265.355H181.789V266.832H181.883C182.107 266.322 182.443 265.926 182.891 265.645C183.344 265.358 183.896 265.215 184.547 265.215C185.49 265.215 186.216 265.486 186.727 266.027C187.242 266.564 187.5 267.319 187.5 268.293V273.77H186.477V268.551C186.477 267.754 186.292 267.152 185.922 266.746C185.557 266.335 185.01 266.129 184.281 266.129C183.786 266.129 183.352 266.238 182.977 266.457C182.602 266.676 182.31 266.983 182.102 267.379C181.893 267.775 181.789 268.238 181.789 268.77V273.77H180.758ZM192.844 273.824C192.047 273.824 191.469 273.658 191.109 273.324C190.755 272.991 190.578 272.441 190.578 271.676V266.215H189.227V265.355H190.578V263.168H191.641V265.355H193.57V266.215H191.641V271.441C191.641 271.962 191.742 272.337 191.945 272.566C192.148 272.796 192.487 272.91 192.961 272.91C193.081 272.91 193.185 272.908 193.273 272.902C193.362 272.897 193.461 272.889 193.57 272.879V273.762C193.451 273.777 193.331 273.79 193.211 273.801C193.096 273.816 192.974 273.824 192.844 273.824ZM196.719 273.832C196.495 273.832 196.302 273.751 196.141 273.59C195.979 273.428 195.898 273.236 195.898 273.012C195.898 272.783 195.979 272.59 196.141 272.434C196.302 272.272 196.495 272.191 196.719 272.191C196.953 272.191 197.148 272.272 197.305 272.434C197.466 272.59 197.547 272.783 197.547 273.012C197.547 273.236 197.466 273.428 197.305 273.59C197.148 273.751 196.953 273.832 196.719 273.832ZM201.359 273.832C201.135 273.832 200.943 273.751 200.781 273.59C200.62 273.428 200.539 273.236 200.539 273.012C200.539 272.783 200.62 272.59 200.781 272.434C200.943 272.272 201.135 272.191 201.359 272.191C201.594 272.191 201.789 272.272 201.945 272.434C202.107 272.59 202.188 272.783 202.188 273.012C202.188 273.236 202.107 273.428 201.945 273.59C201.789 273.751 201.594 273.832 201.359 273.832ZM206 273.832C205.776 273.832 205.583 273.751 205.422 273.59C205.26 273.428 205.18 273.236 205.18 273.012C205.18 272.783 205.26 272.59 205.422 272.434C205.583 272.272 205.776 272.191 206 272.191C206.234 272.191 206.43 272.272 206.586 272.434C206.747 272.59 206.828 272.783 206.828 273.012C206.828 273.236 206.747 273.428 206.586 273.59C206.43 273.751 206.234 273.832 206 273.832Z" fill="white"/>
<g filter="url(#filter0_d_302_297)">
<path d="M119.435 219.154V2.66016" stroke="#070808" stroke-width="8"/>
<path d="M20.2002 80.832C95.8651 99.4804 139.565 99.0426 219.538 80.832" stroke="#070808" stroke-width="8"/>
<path d="M218.005 148.408C142.34 129.76 98.6397 130.198 18.6669 148.408" stroke="#070808" stroke-width="8"/>
<path d="M55.2463 26.0283C104.094 43.9133 132.306 43.4935 183.935 26.0283" stroke="#070808" stroke-width="8"/>
<path d="M55.2463 197.218C104.094 179.333 132.306 179.753 183.935 197.218" stroke="#070808" stroke-width="8"/>
<path d="M119.435 4C131.82 4 144.203 14.577 153.727 34.3906C163.113 53.9178 169.029 81.1752 169.029 111.5C169.029 141.825 163.113 169.082 153.727 188.609C144.203 208.423 131.82 219 119.435 219C107.05 219 94.6671 208.423 85.1436 188.609C75.7575 169.082 69.8408 141.825 69.8408 111.5C69.8408 81.1752 75.7575 53.9178 85.1436 34.3906C94.6671 14.5773 107.05 4.00026 119.435 4Z" stroke="#070808" stroke-width="8"/>
<g filter="url(#filter1_d_302_297)">
<path d="M118.5 4C175.525 4 222 51.9904 222 111.5C222 171.01 175.525 219 118.5 219C61.475 219 15 171.01 15 111.5C15 51.9904 61.475 4 118.5 4Z" stroke="#070808" stroke-width="8" shape-rendering="crispEdges"/>
</g>
</g>
<defs>
<filter id="filter0_d_302_297" x="0.6" y="0" width="235.8" height="247.4" filterUnits="userSpaceOnUse" color-interpolation-filters="sRGB">
<feFlood flood-opacity="0" result="BackgroundImageFix"/>
<feColorMatrix in="SourceAlpha" type="matrix" values="0 0 0 0 0 0 0 0 0 0 0 0 0 0 0 0 0 0 127 0" result="hardAlpha"/>
<feOffset dy="14"/>
<feGaussianBlur stdDeviation="5.2"/>
<feComposite in2="hardAlpha" operator="out"/>
<feColorMatrix type="matrix" values="0 0 0 0 0 0 0 0 0 0 0 0 0 0 0 0 0 0 0.25 0"/>
<feBlend mode="normal" in2="BackgroundImageFix" result="effect1_dropShadow_302_297"/>
<feBlend mode="normal" in="SourceGraphic" in2="effect1_dropShadow_302_297" result="shape"/>
</filter>
<filter id="filter1_d_302_297" x="7" y="0" width="223" height="231" filterUnits="userSpaceOnUse" color-interpolation-filters="sRGB">
<feFlood flood-opacity="0" result="BackgroundImageFix"/>
<feColorMatrix in="SourceAlpha" type="matrix" values="0 0 0 0 0 0 0 0 0 0 0 0 0 0 0 0 0 0 127 0" result="hardAlpha"/>
<feOffset dy="4"/>
<feGaussianBlur stdDeviation="2"/>
<feComposite in2="hardAlpha" operator="out"/>
<feColorMatrix type="matrix" values="0 0 0 0 0 0 0 0 0 0 0 0 0 0 0 0 0 0 0.25 0"/>
<feBlend mode="normal" in2="BackgroundImageFix" result="effect1_dropShadow_302_297"/>
<feBlend mode="normal" in="SourceGraphic" in2="effect1_dropShadow_302_297" result="shape"/>
</filter>
</defs>
</svg>
